<svg width="22" height="22" viewBox="0 0 22 22" fill="none" xmlns="http://www.w3.org/2000/svg">
<path fill-rule="evenodd" clip-rule="evenodd" d="M11.0198 0.0824738C4.95673 0.0824738 0.0401688 5.08191 0.0401688 11.2496C0.0401688 16.1836 3.18617 20.3695 7.5487 21.8461C8.09746 21.9495 8.2989 21.6039 8.2989 21.3089C8.2989 21.0426 8.28873 20.163 8.28401 19.2298C5.22944 19.9054 4.58489 17.9122 4.58489 17.9122C4.08544 16.6215 3.3658 16.2782 3.3658 16.2782C2.36962 15.5851 3.4409 15.5994 3.4409 15.5994C4.54344 15.678 5.12398 16.7502 5.12398 16.7502C6.10326 18.4574 7.69253 17.9638 8.31907 17.6785C8.41761 16.9569 8.70219 16.4639 9.01615 16.1852C6.57745 15.9028 4.01381 14.9453 4.01381 10.6663C4.01381 9.44708 4.44271 8.45089 5.14506 7.66884C5.03108 7.38738 4.65524 6.25176 5.25144 4.71355C5.25144 4.71355 6.17343 4.41342 8.27163 5.85824C9.14746 5.61083 10.0867 5.48671 11.0198 5.4825C11.9529 5.48671 12.8929 5.61083 13.7703 5.85824C15.866 4.41342 16.7867 4.71355 16.7867 4.71355C17.3844 6.25176 17.0083 7.38738 16.8943 7.66884C17.5983 8.45089 18.0244 9.44708 18.0244 10.6663C18.0244 14.9555 15.4558 15.8999 13.0109 16.1763C13.4047 16.5229 13.7556 17.2025 13.7556 18.2444C13.7556 19.7384 13.7429 20.9409 13.7429 21.3089C13.7429 21.6061 13.9405 21.9543 14.4971 21.8447C18.8573 20.3664 21.9993 16.1819 21.9993 11.2496C21.9993 5.08191 17.0835 0.0824738 11.0198 0.0824738Z" fill="black"/>
<path fill-rule="evenodd" clip-rule="evenodd" d="M4.19872 16.1161C4.17454 16.1717 4.08872 16.1882 4.01054 16.1501C3.9309 16.1136 3.88617 16.038 3.91199 15.9824C3.93562 15.9252 4.02163 15.9095 4.10108 15.9474C4.1809 15.984 4.22635 16.0604 4.19872 16.1161Z" fill="black"/>
<path fill-rule="evenodd" clip-rule="evenodd" d="M4.64347 16.6206C4.59108 16.6699 4.48872 16.647 4.41926 16.5689C4.34744 16.4911 4.33399 16.387 4.38708 16.3368C4.44108 16.2875 4.54035 16.3106 4.61235 16.3885C4.68417 16.4672 4.69819 16.5706 4.64347 16.6206Z" fill="black"/>
<path fill-rule="evenodd" clip-rule="evenodd" d="M5.07636 17.2637C5.00908 17.3112 4.89908 17.2667 4.83107 17.1673C4.76383 17.0681 4.76383 16.9489 4.83253 16.9012C4.90073 16.8535 5.00908 16.8964 5.07801 16.995C5.14507 17.0958 5.14507 17.2151 5.07636 17.2637Z" fill="black"/>
<path fill-rule="evenodd" clip-rule="evenodd" d="M5.66945 17.885C5.60927 17.9526 5.48107 17.9344 5.38725 17.8423C5.29127 17.7523 5.26455 17.6245 5.32492 17.557C5.38583 17.4893 5.51471 17.5083 5.60927 17.5997C5.70455 17.6896 5.73361 17.8183 5.66945 17.885Z" fill="black"/>
<path fill-rule="evenodd" clip-rule="evenodd" d="M6.48762 18.2458C6.46108 18.3333 6.33761 18.3731 6.21326 18.3359C6.0891 18.2976 6.00779 18.1952 6.03291 18.1068C6.05871 18.0187 6.18274 17.9773 6.308 18.0171C6.43198 18.0552 6.51347 18.1569 6.48762 18.2458Z" fill="black"/>
<path fill-rule="evenodd" clip-rule="evenodd" d="M7.38618 18.3128C7.38925 18.4049 7.28379 18.4813 7.15325 18.4827C7.02199 18.4859 6.91579 18.4114 6.91437 18.3207C6.91437 18.2277 7.01745 18.1521 7.14872 18.1499C7.27925 18.1473 7.38618 18.2212 7.38618 18.3128Z" fill="black"/>
<path fill-rule="evenodd" clip-rule="evenodd" d="M8.22236 18.168C8.23799 18.2578 8.14724 18.3502 8.01762 18.3745C7.89016 18.3984 7.77219 18.3429 7.75601 18.2538C7.74015 18.1617 7.83255 18.0694 7.95983 18.0455C8.08963 18.0226 8.20582 18.0766 8.22236 18.168Z" fill="black"/>
</svg>
