<svg width="22" height="22" viewBox="0 0 22 22" fill="none" xmlns="http://www.w3.org/2000/svg">
<path d="M0 11C0 4.92488 4.92488 0 11 0C17.0751 0 22 4.92488 22 11C22 17.0751 17.0751 22 11 22C4.92488 22 0 17.0751 0 11Z" fill="#0077B5"/>
<path fill-rule="evenodd" clip-rule="evenodd" d="M7.93778 6.79374C7.93778 7.51291 7.39644 8.08835 6.52722 8.08835H6.51126C5.67439 8.08835 5.13333 7.51291 5.13333 6.79374C5.13333 6.05935 5.69085 5.5 6.54362 5.5C7.39644 5.5 7.9216 6.05935 7.93778 6.79374ZM7.77356 9.11066V16.6007H5.28073V9.11066H7.77356ZM16.7636 16.6007L16.7637 12.3061C16.7637 10.0056 15.5339 8.9348 13.8935 8.9348C12.57 8.9348 11.9774 9.66176 11.6466 10.1717V9.11089H9.15342C9.18628 9.8137 9.15342 16.6008 9.15342 16.6008H11.6466V12.4178C11.6466 12.194 11.6627 11.9707 11.7287 11.8104C11.9088 11.3632 12.319 10.9002 13.0077 10.9002C13.9101 10.9002 14.2709 11.587 14.2709 12.5935V16.6007H16.7636Z" fill="white"/>
</svg>
