<svg width="22" height="22" viewBox="0 0 22 22" fill="none" xmlns="http://www.w3.org/2000/svg">
<path d="M11 22C17.0751 22 22 17.0751 22 11C22 4.92488 17.0751 0 11 0C4.92488 0 0 4.92488 0 11C0 17.0751 4.92488 22 11 22Z" fill="url(#paint0_linear)"/>
<path d="M4.09668 11.5381C5.38257 10.8298 6.81798 10.2386 8.15915 9.64444C10.4665 8.67121 12.783 7.71485 15.1229 6.82449C15.5781 6.67279 16.3961 6.52442 16.4763 7.19909C16.4324 8.15407 16.2518 9.10346 16.1278 10.0529C15.8133 12.1407 15.4497 14.2213 15.0952 16.3022C14.9731 16.9954 14.1047 17.3542 13.5492 16.9106C12.2139 16.0087 10.8685 15.1156 9.55029 14.1928C9.11849 13.754 9.51889 13.124 9.90453 12.8106C11.0043 11.7269 12.1705 10.8061 13.2128 9.6663C13.4939 8.98737 12.6632 9.55955 12.3892 9.73486C10.8837 10.7723 9.41503 11.8732 7.82773 12.785C7.01694 13.2313 6.07195 12.8499 5.26153 12.6008C4.53487 12.3 3.47007 11.9969 4.09661 11.5381L4.09668 11.5381Z" fill="white"/>
<defs>
<linearGradient id="paint0_linear" x1="8.25128" y1="0.9174" x2="2.75128" y2="13.75" gradientUnits="userSpaceOnUse">
<stop stop-color="#37AEE2"/>
<stop offset="1" stop-color="#1E96C8"/>
</linearGradient>
</defs>
</svg>
