<svg width="22" height="22" viewBox="0 0 22 22" fill="none" xmlns="http://www.w3.org/2000/svg">
<path d="M0 11C0 4.92488 4.92488 0 11 0C17.0751 0 22 4.92488 22 11C22 17.0751 17.0751 22 11 22C4.92488 22 0 17.0751 0 11Z" fill="#F26798"/>
<path fill-rule="evenodd" clip-rule="evenodd" d="M16.8667 10.9918C16.8667 11.3886 16.8263 11.7848 16.7469 12.171C16.6696 12.548 16.555 12.9182 16.4049 13.272C16.2582 13.6196 16.0763 13.9546 15.8637 14.2669C15.6544 14.5773 15.4132 14.8686 15.1481 15.134C14.8826 15.3983 14.5904 15.6389 14.2801 15.8492C13.9667 16.0602 13.6313 16.2419 13.2835 16.3892C12.9291 16.5385 12.5582 16.653 12.1814 16.7302C11.7947 16.8097 11.3971 16.8503 10.9997 16.8503C10.6021 16.8503 10.2045 16.8097 9.81833 16.7302C9.44107 16.653 9.07005 16.5385 8.71599 16.3892C8.36821 16.2419 8.03248 16.0602 7.71907 15.8492C7.40882 15.6389 7.11659 15.3983 6.85163 15.134C6.58634 14.8686 6.34512 14.5773 6.13544 14.2669C5.92401 13.9546 5.74182 13.6196 5.59456 13.272C5.44445 12.9182 5.32959 12.548 5.25195 12.171C5.17344 11.7848 5.13334 11.3886 5.13334 10.9918C5.13334 10.5948 5.17344 10.1977 5.25195 9.81241C5.32959 9.43534 5.44445 9.06464 5.5946 8.71136C5.74182 8.36353 5.92405 8.02826 6.13544 7.71586C6.34517 7.4052 6.58639 7.11457 6.85163 6.84883C7.11664 6.58446 7.40882 6.34448 7.71907 6.13451C8.03248 5.92254 8.36825 5.7409 8.71599 5.59331C9.0701 5.44367 9.44107 5.32895 9.81837 5.25231C10.2045 5.17339 10.6021 5.13333 10.9998 5.13333C11.3971 5.13333 11.7947 5.17339 12.1814 5.25231C12.5582 5.32899 12.9291 5.44367 13.2835 5.59331C13.6313 5.7409 13.9667 5.92254 14.2802 6.13451C14.5904 6.34448 14.8826 6.58446 15.1481 6.84883C15.4132 7.11457 15.6544 7.4052 15.8638 7.71586C16.0763 8.02826 16.2582 8.36353 16.4049 8.71136C16.555 9.06464 16.6696 9.43534 16.7469 9.81241C16.8263 10.1977 16.8667 10.5948 16.8667 10.9918ZM8.86206 6.46662C7.46492 7.12548 6.42217 8.41101 6.09703 9.96031L6.10184 9.96036C6.27307 9.96192 8.34222 9.98108 10.7224 9.34954C9.85527 7.8111 8.92884 6.55563 8.86206 6.46662ZM5.99363 10.8322C6.08241 10.8356 8.55782 10.8911 11.1375 10.12C11.2811 10.4009 11.4183 10.6858 11.544 10.9701C11.4781 10.989 11.4117 11.0084 11.3464 11.0302C8.64266 11.9032 7.27155 14.3322 7.27329 14.3347C6.47515 13.4488 5.98959 12.2771 5.98959 10.9918C5.98959 10.9548 5.99083 10.9185 5.99207 10.8819V10.8818C5.99262 10.8654 5.99317 10.8489 5.99363 10.8322ZM14.3085 7.23699C13.4265 6.46034 12.2683 5.98922 10.9997 5.98922C10.5927 5.98922 10.1976 6.03845 9.8192 6.12938L9.82731 6.14029H9.82736C9.94602 6.29906 10.8589 7.52001 11.6921 9.04777C13.5671 8.34584 14.2844 7.27301 14.3081 7.23768L14.3085 7.23699ZM11.8734 11.803L11.8855 11.7991C12.5905 13.6287 12.8816 15.1609 12.9558 15.598C12.3545 15.8534 11.6936 15.9945 10.9997 15.9945C9.83781 15.9945 8.77099 15.596 7.92041 14.9355C7.93086 14.9128 8.89621 12.839 11.8523 11.81C11.8592 11.8074 11.8663 11.8052 11.8734 11.803ZM13.7995 15.1409C14.9244 14.3828 15.7234 13.1791 15.9462 11.7848C15.8431 11.7516 14.4414 11.3085 12.8243 11.5674C13.4814 13.3707 13.7484 14.8394 13.7995 15.1409ZM12.4106 10.5187C12.3067 10.2746 12.1941 10.0318 12.0778 9.79325C14.0432 8.99172 14.849 7.84199 14.8686 7.81412L14.8689 7.81371C15.5718 8.66584 15.9967 9.75434 16.0082 10.9403C16.0068 10.94 16.0048 10.9396 16.0022 10.9391C15.8707 10.9117 14.2071 10.5657 12.5189 10.7778C12.4837 10.692 12.4476 10.6062 12.4106 10.5187Z" fill="white"/>
</svg>
