<svg width="22" height="22" viewBox="0 0 22 22" fill="none" xmlns="http://www.w3.org/2000/svg">
<path d="M0 11C0 4.92488 4.92488 0 11 0C17.0751 0 22 4.92488 22 11C22 17.0751 17.0751 22 11 22C4.92488 22 0 17.0751 0 11Z" fill="white"/>
<path d="M15.7986 15.2304H6.18791C5.81524 15.2304 5.50142 14.9264 5.50142 14.5439V7.60068C5.50142 7.22805 5.80543 6.91423 6.18791 6.91423H15.7986C16.1713 6.91423 16.4851 7.21824 16.4851 7.60068V14.5439C16.4851 14.9264 16.1811 15.2304 15.7986 15.2304Z" fill="#E3E3E3"/>
<path opacity="0.1" d="M6.8744 15.2304L10.9835 11.9255L11.0129 11.749L6.77632 8.69907L6.76651 15.0833L6.8744 15.2304Z" fill="#231F20"/>
<path d="M6.18791 15.2304C5.80543 15.2304 5.50142 14.9264 5.50142 14.5439V7.59086C5.50142 7.20843 5.80543 7.13977 6.18791 7.13977C6.57039 7.13977 6.8744 7.21824 6.8744 7.59086V15.2304H6.18791Z" fill="#D54B3D"/>
<path fill-rule="evenodd" clip-rule="evenodd" d="M5.50142 7.59086C5.50142 7.21824 5.80543 7.13977 6.18791 7.13977C6.57039 7.13977 6.8744 7.20843 6.8744 7.59086V15.2304H6.18791C5.80543 15.2304 5.50142 14.9264 5.50142 14.5439V7.59086ZM6.77632 7.59087C6.77632 7.38494 6.67824 7.23786 6.18791 7.23786C5.69759 7.23786 5.5995 7.37513 5.5995 7.59087V14.5439C5.5995 14.8676 5.86428 15.1323 6.18791 15.1323H6.77632V7.59087Z" fill="#D72B27"/>
<path d="M15.7986 15.2304H15.1121V7.57129C15.1121 7.18881 15.4161 7.13977 15.7986 7.13977C16.181 7.13977 16.4851 7.18881 16.4851 7.57129V14.5537C16.4851 14.9264 16.181 15.2304 15.7986 15.2304Z" fill="#D54B3D"/>
<path fill-rule="evenodd" clip-rule="evenodd" d="M15.1121 7.57129C15.1121 7.18881 15.4161 7.13977 15.7986 7.13977C16.181 7.13977 16.4851 7.18881 16.4851 7.57129V14.5537C16.4851 14.9362 16.181 15.2402 15.7986 15.2402H15.1121V7.57129ZM16.387 7.5713C16.387 7.32609 16.2399 7.23786 15.7986 7.23786C15.3573 7.23786 15.2102 7.31628 15.2102 7.5713V15.1421H15.7986C16.1222 15.1421 16.387 14.8774 16.387 14.5537V7.5713Z" fill="#D72B27"/>
<path d="M12.8566 15.2304L5.5589 7.87609L5.94275 8.0322L11.0227 11.6902L16.4851 7.68469V14.5537C16.4851 14.9264 16.1811 15.2304 15.7986 15.2304H12.8566Z" fill="url(#paint0_linear)"/>
<path d="M10.9835 11.9255L5.79562 8.15971C5.49161 7.93417 5.40338 7.50265 5.62893 7.19863C5.85447 6.89462 6.2958 6.82596 6.60962 7.05151L10.9933 10.2388L15.4063 7.01232C15.7103 6.78673 16.1419 6.85539 16.3674 7.16921C16.5929 7.47322 16.5243 7.90474 16.2105 8.13029L10.9835 11.9255Z" fill="#D54B3D"/>
<path fill-rule="evenodd" clip-rule="evenodd" d="M15.3965 7.00251C15.5142 6.91423 15.6613 6.875 15.7986 6.875C16.0143 6.875 16.2203 6.97308 16.3576 7.1692C16.5733 7.48303 16.5047 7.90474 16.2007 8.13028L10.9835 11.9353L5.79562 8.15971C5.49161 7.93412 5.40338 7.50264 5.61912 7.19863C5.75639 7.01232 5.97217 6.91423 6.18791 6.91423C6.33504 6.91423 6.48211 6.95347 6.59982 7.0417L10.9835 10.2289L15.3965 7.00251ZM16.2791 7.21825C16.1615 7.06131 15.9849 6.97309 15.7986 6.97309C15.6711 6.97309 15.5534 7.01232 15.4456 7.08093L11.0423 10.3074L10.9834 10.3466L10.9246 10.3074L6.55077 7.12997C6.45269 7.05151 6.32522 7.01232 6.19772 7.01232C6.0016 7.01232 5.81524 7.11036 5.70739 7.25748C5.52103 7.51245 5.58969 7.88512 5.85447 8.08124L10.9834 11.8078L16.1517 8.04201C16.4066 7.84589 16.4655 7.48303 16.2791 7.21825Z" fill="#D72B27"/>
<defs>
<linearGradient id="paint0_linear" x1="5.55931" y1="15.2313" x2="16.4886" y2="15.2313" gradientUnits="userSpaceOnUse">
<stop stop-opacity="0.1"/>
<stop offset="1" stop-opacity="0.2"/>
</linearGradient>
</defs>
</svg>
